<svg width="25" height="25" viewBox="0 0 25 25" fill="none" xmlns="http://www.w3.org/2000/svg">
<path d="M18.1156 7.10034C16.6656 5.65034 14.6756 4.75034 12.4656 4.75034C10.3438 4.75034 8.30901 5.59319 6.80872 7.09348C5.30843 8.59377 4.46558 10.6286 4.46558 12.7503C4.46558 14.8721 5.30843 16.9069 6.80872 18.4072C8.30901 19.9075 10.3438 20.7503 12.4656 20.7503C16.1956 20.7503 19.3056 18.2003 20.1956 14.7503H18.1156C17.2956 17.0803 15.0756 18.7503 12.4656 18.7503C10.8743 18.7503 9.34815 18.1182 8.22294 16.993C7.09772 15.8678 6.46558 14.3416 6.46558 12.7503C6.46558 11.159 7.09772 9.63291 8.22294 8.5077C9.34815 7.38248 10.8743 6.75034 12.4656 6.75034C14.1256 6.75034 15.6056 7.44034 16.6856 8.53034L13.4656 11.7503H20.4656V4.75034L18.1156 7.10034Z" fill="white"/>
</svg>
