<svg width="32" height="33" viewBox="0 0 32 33" fill="none" xmlns="http://www.w3.org/2000/svg">
<path d="M16.9869 8.04333C20.1336 9.41667 21.8002 12.79 21.2269 16.03C22.9202 17.4967 24.0002 19.67 24.0002 22.0833V22.31C24.4136 22.1633 24.8669 22.0833 25.3336 22.0833C26.3944 22.0833 27.4119 22.5048 28.162 23.2549C28.9121 24.0051 29.3336 25.0225 29.3336 26.0833C29.3336 27.1442 28.9121 28.1616 28.162 28.9118C27.4119 29.6619 26.3944 30.0833 25.3336 30.0833H8.00024C6.58575 30.0833 5.2292 29.5214 4.229 28.5212C3.22881 27.521 2.66691 26.1645 2.66691 24.75C2.66691 23.3355 3.22881 21.979 4.229 20.9788C5.2292 19.9786 6.58575 19.4167 8.00024 19.4167H8.36024C6.66691 17.35 6.13357 14.4033 7.33357 11.7633C8.96024 8.08333 13.2936 6.40333 16.9869 8.04333ZM15.9069 10.4833C13.5469 9.41667 10.7869 10.4967 9.74691 12.8433C9.13357 14.2033 9.24024 15.71 9.88024 16.9233C11.3336 15.19 13.5469 14.0833 16.0002 14.0833C16.9336 14.0833 17.8402 14.2433 18.6669 14.5367C18.5869 12.83 17.5736 11.23 15.9069 10.4833ZM18.0669 5.60333C17.3336 5.28333 16.6002 5.05667 15.8402 4.91L19.1602 3.17667L20.3602 7.03C19.6802 6.47 18.9202 5.99 18.0669 5.60333ZM8.12024 6.67C7.46691 7.13667 6.89357 7.67 6.40024 8.25667L6.54691 4.51L10.4936 5.41667C9.66691 5.69667 8.86691 6.12333 8.12024 6.67ZM24.0002 13.6967C23.8802 12.91 23.7069 12.15 23.4536 11.4167L26.6269 13.4167L23.8936 16.39C24.0402 15.5233 24.0669 14.6167 24.0002 13.6967ZM4.05357 15.8167C4.14691 16.6167 4.32024 17.3767 4.57357 18.0833L1.41357 16.0833L4.13357 13.1233C4.00024 13.99 3.96024 14.8967 4.05357 15.8167ZM25.3336 24.75H21.3336V22.0833C21.3336 20.6688 20.7717 19.3123 19.7715 18.3121C18.7713 17.3119 17.4147 16.75 16.0002 16.75C14.5858 16.75 13.2292 17.3119 12.229 18.3121C11.2288 19.3123 10.6669 20.6688 10.6669 22.0833H8.00024C7.293 22.0833 6.61472 22.3643 6.11462 22.8644C5.61453 23.3645 5.33357 24.0428 5.33357 24.75C5.33357 25.4572 5.61453 26.1355 6.11462 26.6356C6.61472 27.1357 7.293 27.4167 8.00024 27.4167H25.3336C25.6872 27.4167 26.0263 27.2762 26.2764 27.0261C26.5264 26.7761 26.6669 26.437 26.6669 26.0833C26.6669 25.7297 26.5264 25.3906 26.2764 25.1405C26.0263 24.8905 25.6872 24.75 25.3336 24.75Z" fill="url(#paint0_linear_18_17)"/>
<path d="M15.9069 10.4833C13.5469 9.41667 10.7869 10.4967 9.74691 12.8433C9.13357 14.2033 9.24024 15.71 9.88024 16.9233C11.3336 15.19 13.5469 14.0833 16.0002 14.0833C16.9336 14.0833 17.8402 14.2433 18.6669 14.5367C18.5869 12.83 17.5736 11.23 15.9069 10.4833Z" fill="#CDD032"/>
<path d="M25.3336 24.75H21.3336V22.0833C21.3336 20.6688 20.7717 19.3123 19.7715 18.3121C18.7713 17.3119 17.4147 16.75 16.0002 16.75C14.5858 16.75 13.2292 17.3119 12.229 18.3121C11.2288 19.3123 10.6669 20.6688 10.6669 22.0833H8.00024C7.293 22.0833 6.61472 22.3643 6.11462 22.8644C5.61453 23.3645 5.33357 24.0428 5.33357 24.75C5.33357 25.4572 5.61453 26.1355 6.11462 26.6356C6.61472 27.1357 7.293 27.4167 8.00024 27.4167H25.3336C25.6872 27.4167 26.0263 27.2762 26.2764 27.0261C26.5264 26.7761 26.6669 26.437 26.6669 26.0833C26.6669 25.7297 26.5264 25.3906 26.2764 25.1405C26.0263 24.8905 25.6872 24.75 25.3336 24.75Z" fill="#327BD0"/>
<defs>
<linearGradient id="paint0_linear_18_17" x1="21.3335" y1="13.75" x2="5.3335" y2="28.4167" gradientUnits="userSpaceOnUse">
<stop stop-color="#052C5A"/>
<stop offset="1" stop-color="#1691AC"/>
</linearGradient>
</defs>
</svg>
